HIERARCHY
ROOT Hips
{
	OFFSET 0.000000 0.000000 0.000000
	CHANNELS 6 Xposition Yposition Zposition Xrotation Yrotation Zrotation
	JOINT LeftUpLeg_virtual
	{
		OFFSET 0.000000 0.000000 0.000000
		CHANNELS 3 Xrotation Yrotation Zrotation
		JOINT LeftUpLeg
		{
			OFFSET 11.394100 -6.187798 -0.413800
			CHANNELS 3 Xrotation Yrotation Zrotation
			JOINT LeftLeg
			{
				OFFSET 0.430247 -32.302673 3.732800
				CHANNELS 3 Xrotation Yrotation Zrotation
				JOINT LeftFoot
				{
					OFFSET -0.430247 -48.264931 -6.423300
					CHANNELS 3 Xrotation Yrotation Zrotation
					JOINT LeftToeBase
					{
						OFFSET 4.230900 -16.068199 23.438400
						CHANNELS 3 Xrotation Yrotation Zrotation
						JOINT LeftToe_End
						{
							OFFSET 4.510700 0.695400 19.974600
							CHANNELS 3 Xrotation Yrotation Zrotation
							End Site
							{
								OFFSET 0 0 0
							}
						}
					}
				}
			}
		}
	}
	JOINT RightUpLeg_virtual
	{
		OFFSET 0.000000 0.000000 0.000000
		CHANNELS 3 Xrotation Yrotation Zrotation
		JOINT RightUpLeg
		{
			OFFSET -11.333700 -6.187798 -0.413800
			CHANNELS 3 Xrotation Yrotation Zrotation
			JOINT RightLeg
			{
				OFFSET -0.430392 -32.302628 3.733000
				CHANNELS 3 Xrotation Yrotation Zrotation
				JOINT RightFoot
				{
					OFFSET 0.430392 -48.264973 -6.423500
					CHANNELS 3 Xrotation Yrotation Zrotation
					JOINT RightToeBase
					{
						OFFSET -4.230900 -16.068199 23.438400
						CHANNELS 3 Xrotation Yrotation Zrotation
						JOINT RightToe_End
						{
							OFFSET -4.510700 0.695400 19.974600
							CHANNELS 3 Xrotation Yrotation Zrotation
							End Site
							{
								OFFSET 0 0 0
							}
						}
					}
				}
			}
		}
	}
	JOINT Spine_virtual
	{
		OFFSET 0.000000 0.000000 0.000000
		CHANNELS 3 Xrotation Yrotation Zrotation
		JOINT Spine
		{
			OFFSET -0.002400 12.777504 0.315300
			CHANNELS 3 Xrotation Yrotation Zrotation
			JOINT Spine1
			{
				OFFSET -0.002067 5.816869 0.032633
				CHANNELS 3 Xrotation Yrotation Zrotation
				JOINT Spine1_split
				{
					OFFSET -0.002067 5.816869 0.032633
					CHANNELS 3 Xrotation Yrotation Zrotation
					JOINT Spine2
					{
						OFFSET -0.002067 5.816869 0.032633
						CHANNELS 3 Xrotation Yrotation Zrotation
						JOINT Neck_virtual
						{
							OFFSET 0.000000 0.000000 0.000000
							CHANNELS 3 Xrotation Yrotation Zrotation
							JOINT Neck
							{
								OFFSET -0.003700 21.199493 -0.826900
								CHANNELS 3 Xrotation Yrotation Zrotation
								JOINT Head
								{
									OFFSET 0.000000 20.442200 4.834800
									CHANNELS 3 Xrotation Yrotation Zrotation
									JOINT HeadTop_End
									{
										OFFSET 0.000000 34.668396 4.968400
										CHANNELS 3 Xrotation Yrotation Zrotation
										End Site
										{
											OFFSET 0 0 0
										}
									}
								}
							}
						}
						JOINT LeftShoulder_virtual
						{
							OFFSET 0.000000 0.000000 0.000000
							CHANNELS 3 Xrotation Yrotation Zrotation
							JOINT LeftShoulder
							{
								OFFSET 3.288150 8.794197 -1.372250
								CHANNELS 3 Xrotation Yrotation Zrotation
								JOINT LeftShoulder_split
								{
									OFFSET 3.288150 8.794197 -1.372250
									CHANNELS 3 Xrotation Yrotation Zrotation
									JOINT LeftArm
									{
										OFFSET 11.953299 -2.279007 -0.146200
										CHANNELS 3 Xrotation Yrotation Zrotation
										JOINT LeftForeArm
										{
											OFFSET 18.448900 0.000000 0.000000
											CHANNELS 3 Xrotation Yrotation Zrotation
											JOINT LeftHand
											{
												OFFSET 29.527798 0.000000 0.000000
												CHANNELS 3 Xrotation Yrotation Zrotation
												End Site
												{
													OFFSET 0 0 0
												}
											}
										}
									}
								}
							}
						}
						JOINT RightShoulder_virtual
						{
							OFFSET 0.000000 0.000000 0.000000
							CHANNELS 3 Xrotation Yrotation Zrotation
							JOINT RightShoulder
							{
								OFFSET -3.249400 8.794197 -1.372250
								CHANNELS 3 Xrotation Yrotation Zrotation
								JOINT RightShoulder_split
								{
									OFFSET -3.249400 8.794197 -1.372250
									CHANNELS 3 Xrotation Yrotation Zrotation
									JOINT RightArm
									{
										OFFSET -11.953299 -2.279007 -0.146200
										CHANNELS 3 Xrotation Yrotation Zrotation
										JOINT RightForeArm
										{
											OFFSET -18.448900 0.000000 0.000000
											CHANNELS 3 Xrotation Yrotation Zrotation
											JOINT RightHand
											{
												OFFSET -29.527802 0.000000 0.000000
												CHANNELS 3 Xrotation Yrotation Zrotation
												End Site
												{
													OFFSET 0 0 0
												}
											}
										}
									}
								}
							}
						}
					}
				}
			}
		}
	}
}
MOTION
Frames: 6
Frame Time: 0.03333333
2.984605 45.269226 -15.764755 0.000000 0.000000 0.000000 35.899447 -9.341695 5.164758 -103.934961 1.735368 7.206705 119.717780 22.993142 3.973635 51.217328 13.343193 -8.538828 2.104672 10.901396 38.976198 0.000000 0.000000 0.000000 37.903117 -4.549151 3.381179 -99.111570 29.017936 -1.957960 120.043389 2.472465 -2.365566 52.686433 13.575407 4.572067 -26.080995 -10.686513 -62.111609 0.000000 0.000000 0.000000 35.749005 -10.616357 3.786177 21.470768 4.528035 -6.771479 16.275508 1.863074 -0.613850 0.388897 1.670202 1.036752 0.000000 0.000000 0.000000 16.550780 1.781267 -1.234674 2.357282 -0.004171 2.588417 -2.933382 -8.734842 5.461610 0.000000 0.000000 0.000000 16.177571 1.555270 -1.820451 0.984157 -36.477158 -6.363470 -0.386942 -1.369502 -0.105403 -59.516786 -41.726346 -54.943336 2.164303 -56.345717 2.244960 0.000000 0.000000 0.000000 15.825878 2.046717 -0.627848 -0.706115 12.650076 3.087052 0.390943 -2.304643 -2.293735 -47.138120 18.212051 45.688744 -3.113430 66.578000 1.846078 0.000000 0.000000 0.000000 
2.840943 45.171535 -16.751820 0.000000 0.000000 0.000000 34.231262 -9.644693 4.885933 -103.673263 1.580380 7.649065 120.807892 22.875822 4.287659 52.016610 13.185308 -8.466220 1.851154 10.870759 38.981461 0.000000 0.000000 0.000000 36.160336 -4.799688 3.174634 -100.233361 28.937818 0.622644 120.342633 1.972414 -2.421042 53.692756 12.937767 4.568053 -26.100379 -10.790678 -62.245727 0.000000 0.000000 0.000000 34.040174 -11.188047 3.642938 21.012158 4.093411 -7.251029 17.441528 1.800498 -1.035018 0.545437 1.508066 1.154139 0.000000 0.000000 0.000000 17.691705 1.798796 -1.633669 2.212792 0.344699 1.878904 -1.207059 -8.164413 5.945724 0.000000 0.000000 0.000000 17.291416 1.556420 -2.224226 0.571323 -33.855253 -8.462648 -0.529439 -2.494462 0.217874 -59.594562 -42.367827 -53.641540 2.503545 -56.404272 2.933404 0.000000 0.000000 0.000000 16.882020 1.984973 -1.013251 -0.631321 11.650658 3.217795 0.621457 -1.778481 -2.300187 -49.642170 19.195690 47.971967 -2.968101 67.122496 1.687294 0.000000 0.000000 0.000000 
2.625931 45.152596 -17.765194 0.000000 0.000000 0.000000 32.411563 -10.192276 4.533262 -102.865046 1.459009 8.253957 121.593131 22.832136 4.640061 52.679016 12.922581 -8.474503 1.497416 10.784674 39.059929 0.000000 0.000000 0.000000 34.279678 -5.293080 2.920631 -100.747927 28.483996 3.193038 120.293196 1.463858 -2.508534 54.484190 12.327166 4.697344 -26.240952 -10.845108 -62.208448 0.000000 0.000000 0.000000 32.138335 -11.969815 3.439239 20.560389 3.629908 -7.732045 18.204985 1.702616 -1.461635 0.476287 1.236190 1.271022 0.000000 0.000000 0.000000 18.439983 1.773644 -2.018351 2.427970 0.691042 1.143997 0.812642 -7.592081 6.570680 0.000000 0.000000 0.000000 18.034049 1.520786 -2.594385 0.266024 -30.521520 -10.626474 -0.549672 -3.351639 0.446404 -58.834881 -42.134747 -52.549532 3.032988 -58.351180 3.819154 0.000000 0.000000 0.000000 17.540363 1.853966 -1.406796 -0.480668 10.819970 3.302289 0.841636 -1.460633 -2.184251 -52.109296 20.484214 51.827383 -2.957492 67.449532 1.814646 0.000000 0.000000 0.000000 
2.349766 45.193184 -18.649830 0.000000 0.000000 0.000000 30.566852 -10.968813 4.146978 -101.582542 1.412055 8.995117 122.085342 22.899220 4.989504 53.074040 12.655471 -8.486933 1.067861 10.656288 39.169328 0.000000 0.000000 0.000000 32.361863 -6.051962 2.645855 -100.685007 27.775092 5.519556 119.963298 1.034033 -2.679768 55.145411 11.885870 4.971848 -26.327840 -10.896529 -62.048703 0.000000 0.000000 0.000000 30.160712 -12.951249 3.189525 20.201280 3.155131 -8.204406 18.618028 1.561681 -1.797332 0.276779 0.799846 1.489573 0.000000 0.000000 0.000000 18.865490 1.681557 -2.314784 2.889823 1.020497 0.517356 2.856039 -7.077343 7.221788 0.000000 0.000000 0.000000 18.477320 1.429604 -2.848241 0.124548 -26.933914 -12.520825 -0.399098 -3.748202 0.667167 -57.399899 -41.092856 -51.963745 3.563235 -61.565413 4.667878 0.000000 0.000000 0.000000 17.888566 1.672456 -1.721648 -0.294698 10.163861 3.267950 0.929079 -1.417251 -1.960172 -54.415567 21.858728 56.706918 -3.244958 67.051339 2.342038 0.000000 0.000000 0.000000 
2.026999 45.284557 -19.402843 0.000000 0.000000 0.000000 28.807542 -11.953879 3.788146 -99.957093 1.519635 9.882455 122.337417 23.100243 5.278726 53.039711 12.520125 -8.373018 0.598430 10.502130 39.244252 0.000000 0.000000 0.000000 30.516216 -7.005942 2.381272 -100.109475 26.912313 7.427258 119.489542 0.670503 -2.929803 55.620426 11.591859 5.347779 -26.377545 -10.881573 -61.853790 0.000000 0.000000 0.000000 28.258356 -14.024666 2.887125 20.016295 2.714863 -8.649416 18.789919 1.388650 -1.997161 -0.386529 0.319240 1.883870 0.000000 0.000000 0.000000 19.047209 1.530430 -2.485106 3.408636 1.296193 0.130135 4.719547 -6.641794 7.808610 0.000000 0.000000 0.000000 18.737992 1.275535 -2.965620 0.132836 -23.652580 -13.875283 -0.224574 -3.535862 0.924486 -55.959392 -39.454349 -52.174890 3.846668 -64.574459 5.234675 0.000000 0.000000 0.000000 18.057388 1.476507 -1.914470 -0.115372 9.796497 3.028706 0.848255 -1.656859 -1.450112 -56.381087 23.347026 61.651746 -3.753311 65.400318 3.073562 0.000000 0.000000 0.000000 
1.684876 45.361469 -19.956135 0.000000 0.000000 0.000000 27.235053 -13.081031 3.489999 -98.225777 1.793380 10.827393 122.472996 23.414083 5.498987 52.548962 12.519188 -8.147716 0.172948 10.366094 39.253664 0.000000 0.000000 0.000000 28.819259 -8.041235 2.143549 -99.183779 26.041517 8.881945 119.022822 0.356474 -3.253104 55.803677 11.374756 5.744645 -26.475152 -10.718034 -61.720875 0.000000 0.000000 0.000000 26.502573 -15.080969 2.556394 20.065279 2.330520 -9.034949 18.799093 1.194154 -2.046624 -0.546082 -0.281236 2.338114 0.000000 0.000000 0.000000 19.006777 1.333480 -2.531757 3.785900 1.517767 0.048682 6.234251 -6.389862 8.305295 0.000000 0.000000 0.000000 18.872547 1.063850 -2.961996 0.211611 -21.129327 -14.599934 -0.097189 -2.878406 1.093118 -54.660706 -37.583642 -53.067028 3.479672 -66.206847 5.113549 0.000000 0.000000 0.000000 18.093601 1.291001 -1.977428 0.029012 9.686287 2.609867 0.680593 -1.974307 -0.830794 -57.868989 25.192338 66.002877 -4.192537 62.198407 3.665334 0.000000 0.000000 0.000000 
